# xmcd
#
# Track frame offsets: 
#        182
#        9940
#        26745
#        50190
#        69147
#        92335
#        110100
#        131505
#        155125
#        165142
#        181680
#        205755
#        228620
#
# Disc length: 3273 seconds
#
# Revision: 4
# Processed by: cddbd v1.4PL0 Copyright (c) Steve Scherf et al.
# Submitted via: ExactAudioCopy v0.95a3
#
DISCID=9f0cc70d
DTITLE=LITTLE AXE - Slow Fuse
DYEAR=1996
DGENRE=Blues
TTITLE0=Blue
TTITLE1=On The Beat Sound
TTITLE2=Storm Is Rising
TTITLE3=Black Diamond Train
TTITLE4=Short Fuse
TTITLE5=Going Down Slow
TTITLE6=Must Have Been The Devil
TTITLE7=People Do
TTITLE8=Amber
TTITLE9=Chains
TTITLE10=Return
TTITLE11=Too Late
TTITLE12=Speak Easy
EXTD=
EXTT0=
EXTT1=
EXTT2=
EXTT3=
EXTT4=
EXTT5=
EXTT6=
EXTT7=
EXTT8=
EXTT9=
EXTT10=
EXTT11=
EXTT12=
PLAYORDER=
